<?xml version="1.0" encoding="utf-8"?>
<!-- Generator: Adobe Illustrator 18.1.0, SVG Export Plug-In . SVG Version: 6.00 Build 0)  -->
<svg version="1.1" id="Layer_1" xmlns="http://www.w3.org/2000/svg" xmlns:xlink="http://www.w3.org/1999/xlink" x="0px" y="0px"
	 viewBox="0 0 400 400" enable-background="new 0 0 400 400" xml:space="preserve">
<g>
	<g>
		<path fill-rule="evenodd" clip-rule="evenodd" fill="#A6CDD3" d="M240.4,277.6c4.6,17.6,17.5,24,32.8,24.3
			c10.6,0.2,21.7-2.1,31.9-5.3c14.4-4.6,28.2-11,43.2-17c-5.3-19.1-10.2-38.4-16-57.3c-2.7-8.8-3.4-8.6,4.7-16.2
			c18.4,25.3,12.3,59.8,30.6,81.9c-20.7,7.3-41.9,14.8-63.2,22.1c-28.5,9.8-54.8,4.5-69.1-13.6C227.3,286.2,228.4,281,240.4,277.6z"
			/>
		<path fill-rule="evenodd" clip-rule="evenodd" fill="#A6CDD3" d="M60.7,293.3c21,5.3,41.1,10,60.9,15.7c4.1,1.2,7.1,5.8,10.6,8.8
			c-0.9,1.7-1.7,3.4-2.5,5.1c-28.9-6.5-57.6-13-84.6-19.1c3.6-19.7,7.2-42,11.7-64c4.6-22.2,14.2-41.3,36.9-50.3
			c4.3-1.7,9.1-2.6,13.7-2.7c10.7-0.4,12,1.6,9.7,13c-24.7-1.1-38.6,7.8-45.1,32.5C66.9,251.8,64.5,272.1,60.7,293.3z"/>
		<path fill-rule="evenodd" clip-rule="evenodd" fill="#A6CDD3" d="M282.7,220.8c0.1-6.9,0.1-10.4,0.2-14c25.3,1.6,40.5-8.7,46.7-34
			c4.7-18.9,6.9-38.5,10.5-59.2c-19.3-5.1-38.3-10.9-57.6-14.9c-7.6-1.6-11.9-3.7-12.2-12.9c30.9-2.7,57.6,19.2,90,14.5
			c-12.6,20.7-11.6,43.3-15.8,64.8c-4.4,22.7-13.5,42.5-36.5,51.7C300.7,219.8,292.1,219.5,282.7,220.8z"/>
		<path fill-rule="evenodd" clip-rule="evenodd" fill="#A6CDD3" d="M161.4,129.2c-7.8-17.8-19.6-26-39.2-24.4
			c-11.7,1-23.3,5-34.5,8.7c-11.6,3.8-22.8,8.9-35.1,13.8c5.4,19.1,10.2,38.3,16.2,57.2c2.3,7.3,2.9,12.5-7,17
			c-9.1-28.7-18.2-57.1-26.6-83.4c15.9-5.4,33.6-12.4,51.8-17.4c14.8-4,30.2-7.5,45.4-7.7c15.5-0.2,28.3,8.6,36.3,22.5
			C173.3,123.6,170.8,128.4,161.4,129.2z"/>
		<path fill-rule="evenodd" clip-rule="evenodd" fill="#A6CDD3" d="M270,324.4c-11.3,11.9-21.8,22.7-32,33.8
			c-9.9,10.8-19.5,21.8-27.9,31.3c-11.9-10.5-24.9-22.7-38.6-34c-13.5-11.2-26.5-22.6-33-39.5c-5.2-13.5-5.5-26.8,1.2-39.9
			c4.4-8.6,9.5-10.2,16.2-2.5c-13.3,17.6-14.1,38.7,11.9,62.8c6.4,5.9,13.5,10.9,20.3,16.4c6.8,5.4,13.5,10.9,21,17
			c13.7-13.9,27.9-27.2,40.7-41.8C255.2,321.7,259.5,318.7,270,324.4z"/>
		<path fill-rule="evenodd" clip-rule="evenodd" fill="#A6CDD3" d="M191.1,17.4c11.4,10.1,25.3,21.4,37.8,34
			c11.4,11.4,22.9,23.2,31.6,36.6c8.5,13,8.4,28.3,0.7,42.5c-5.3,9.7-6.6,9.9-14.6,4.4c2.5-10.2,7.9-20.2,6.2-28.7
			c-2.4-11.4-8.4-23.4-16.5-31.8c-13.1-13.7-29.1-24.7-44.4-37.3c-14.1,14.3-28.3,27.7-41.1,42.3c-5.5,6.3-9.8,8.7-19.1,3.1
			C152.3,59.9,172.5,37.8,191.1,17.4z"/>
		<path fill-rule="evenodd" clip-rule="evenodd" fill="#A6CDD3" d="M203.3,203.5c2.8-0.8,4.9-1.5,7-2c11.4-2.5,23.9,0.1,29.1,15.2
			c0.5,1.4,1.3,2.9,2.4,3.8c3.2,2.7,6.5,5.2,9.7,7.9c9.2,7.6,19.7,11.3,31.6,10.2c3.9-0.4,7.7-1.4,11.6-2.2c-0.1-0.3-0.1-0.6-0.1-1
			c-1.4-0.2-2.8-0.3-4.2-0.6c-10.2-1.9-17.1-7.5-19.9-17.6c-1.1-3.9-1.7-8-3.1-11.7c-0.7-2.1-2.1-4.2-3.8-5.6
			C245.7,186,222.9,187.2,203.3,203.5z"/>
		<path fill-rule="evenodd" clip-rule="evenodd" fill="#A6CDD3" d="M244,289.6c-7.7-10.4-8.1-19.1-1.4-30.2c1.9-3,3.7-6,5.4-9.1
			c0.6-1.1,1.1-2.5,1-3.7c-2.2-24.7-21.5-40.4-45-41.9c1.4,0.9,1.8,1.1,2.3,1.4c13.5,6.6,21.1,19.3,12.9,34.6
			c-0.5,0.9-0.5,2.3-0.4,3.4c0.3,3.6,0.8,7.3,1.2,10.9c0.7,7.1,2.2,14,6,20.1c4.7,7.6,11,13.3,19.9,17.4
			C245,291.1,244.5,290.3,244,289.6z"/>
		<path fill-rule="evenodd" clip-rule="evenodd" fill="#A6CDD3" d="M200.5,205.3c-1.5,0.4-2.6,0.8-3.7,1.1
			c-11.8,3.6-26.2,2-31.9-14.9c-0.4-1.2-1.1-2.5-2.1-3.2c-4.3-3.6-8.7-7.1-13.2-10.4c-12.3-8.9-25.7-9.9-39.8-4.9
			c10.4,0.9,18.6,5.1,22.8,14.9c1.9,4.4,2.5,9.3,4,13.9c0.7,2.2,1.6,4.7,3.2,6C157.2,222.6,183.6,221.6,200.5,205.3z"/>
		<path fill-rule="evenodd" clip-rule="evenodd" fill="#A6CDD3" d="M161.4,149.7c-1.7,2.5-3.4,5-4.6,7.8c-0.9,1.9-1.4,4.3-1.1,6.3
			c2.7,22,20.3,38.6,42.7,40.2c0.8,0,1.6-0.5,2.3-0.7c0.1,0,0.1,0,0.1,0c-0.1-0.1-0.1-0.1-0.1-0.2l0,0l0,0c0,0.1,0,0.1,0,0.2l0,0
			c-0.1,0-0.3-0.1-0.4-0.1c-0.8-0.2-1.5-0.4-2.3-0.7c0,0-0.1,0-0.1,0c-0.8-0.3-1.7-0.7-2.4-1c0,0,0,0,0,0c-0.8-0.4-1.6-0.8-2.3-1.3
			c0,0,0,0-0.1,0c-2.2-1.4-4.1-3.1-5.7-5.1c0-0.1-0.1-0.1-0.1-0.1c-1-1.3-1.9-2.7-2.6-4.1c0,0-0.1-0.1-0.1-0.1
			c-0.3-0.7-0.7-1.5-0.9-2.2c0-0.1,0-0.1-0.1-0.2c-0.2-0.7-0.5-1.4-0.7-2.2c-0.1-0.2-0.1-0.4-0.1-0.6c-0.1-0.6-0.3-1.3-0.4-1.9
			c0-0.2,0-0.4,0-0.7c-0.1-0.6-0.2-1.3-0.2-1.9c0-0.8,0-1.7,0.1-2.6c0,0,0-0.1,0-0.1c0-0.4,0.1-0.9,0.2-1.4c0.3-2.2,0.9-4.5,1.8-6.7
			c0.7-1.6,1.4-3.4,1.3-5.1c-0.2-4.1-0.9-8.1-1.3-12.1c-0.8-8.7-3.5-16.6-9-23.5c-4.3-5.4-9.5-9.7-16.7-12.9
			c1.1,1.7,1.5,2.5,2.1,3.2C168.3,129.4,168.2,139.4,161.4,149.7z"/>
		<path fill-rule="evenodd" clip-rule="evenodd" fill="#A6CDD3" d="M190.1,272.4c3.7-0.9,7.4-1.6,11-2.9c1.9-0.7,4-2,5.3-3.6
			c9.9-12.6,12.3-26.6,7.5-41.8c-2.5-7.8-6.9-14.9-10.8-17.7c0.3,0.6,0.5,1.1,0.7,1.6c5.3,15.2,0.6,29.8-15.1,34
			c-1,0.3-2,1.3-2.7,2.1c-2.5,2.9-4.7,5.9-7.2,8.8c-11.2,13.3-13.7,28-7.6,44.2c0.1-1.3,0.2-2.6,0.4-3.9
			C172.9,282.6,179.6,275,190.1,272.4z"/>
		<path fill-rule="evenodd" clip-rule="evenodd" fill="#A6CDD3" d="M200.7,203c-0.3-1.8-0.5-3.7-0.9-5.5c-3-11.1-1.1-25.4,15.5-30.6
			c1-0.3,2.1-0.7,2.7-1.5c5-6.7,10.4-13.1,14.6-20.3c5.6-9.6,5.5-25.5,0.8-33.9c-0.1,1.2-0.2,2.2-0.3,3.3c-1.2,11.3-8,19-19,21.8
			c-3.7,0.9-7.4,1.7-11,2.8c-1.6,0.5-3.3,1.3-4.3,2.5c-7.7,9.6-11.5,20.4-10.4,32.8c0.1,1.4,0.3,2.7,0.6,4c0.4,2.1,0.9,4,1.6,5.9
			c0.2,0.5,0.3,1.1,0.6,1.6c0.1,0.3,0.3,0.6,0.4,1c0.4,0.9,0.7,1.8,1.1,2.6c0.1,0.2,0.2,0.5,0.3,0.7c0.5,0.9,0.9,1.9,1.4,2.8
			c0.1,0.2,0.2,0.3,0.2,0.4C196.4,196.7,198.5,199.9,200.7,203L200.7,203C200.7,203,200.7,203,200.7,203z"/>
		<path fill-rule="evenodd" clip-rule="evenodd" fill="#A6CDD3" d="M202.1,206.8c-1.3,0.9-1.8,2-2.4,3c-7,12.7-18.7,19.2-33.5,11.6
			c-0.9-0.5-2-0.8-3-0.7c-6.6,0.8-13.3,1.3-19.8,2.6c-13.9,2.9-23.1,11.8-29.1,24.3c11.9-9.5,21-10.1,34.1-1.9
			c2.2,1.4,4.4,2.9,6.8,3.9c1.9,0.8,4.2,1.4,6.3,1.2c18.8-2.1,33.7-15.2,38.5-33.7C200.9,213.7,201.4,210.2,202.1,206.8z"/>
		<path fill-rule="evenodd" clip-rule="evenodd" fill="#A6CDD3" d="M202.8,202.7c0.5-1.1,0.8-1.4,0.9-1.8
			c6.6-14.2,19.3-21.9,34.9-13.6c0.9,0.4,2,0.5,3,0.4c4.4-0.4,8.9-0.9,13.3-1.4c9.6-1,18.2-4.4,25.4-11.2c4.5-4.3,8.9-10.7,9.6-14.4
			c-11.1,9.5-20.8,10.3-33.3,2.6c-2.8-1.7-5.6-3.4-8.5-4.9c-1-0.5-2.2-0.9-3.3-0.8C220.5,159.4,203.8,178.8,202.8,202.7z"/>
	</g>
</g>
</svg>
